<svg width="42" height="48" viewBox="0 0 42 48" fill="none" xmlns="http://www.w3.org/2000/svg">
<path d="M38.697 23.359C36.4312 22.9974 34.4559 21.6697 33.2519 19.7578L30.1592 26.2539C32.221 28.138 34.813 29.4178 37.6553 29.8722C39.4544 30.1596 41.1452 28.9355 41.4327 27.1365C41.7217 25.3374 40.4961 23.6465 38.697 23.359Z" fill="#E2F163"/>
<path d="M14.3165 36.8803C15.5746 36.412 16.8481 35.7366 18.0429 34.8061C17.5112 34.463 17.0305 34.0983 16.6039 33.7103C15.6132 32.8108 14.9084 31.8077 14.437 30.8139C14.2454 30.4105 14.0939 30.0117 13.9702 29.6191C13.6518 29.8649 13.3257 30.0751 12.9872 30.2575C12.2778 30.6392 11.5189 30.9004 10.7369 31.0643C9.95634 31.2281 9.15572 31.2946 8.40147 31.2946C7.32883 31.2946 6.35047 31.1601 5.66886 31.0272C5.32729 30.9607 5.06145 30.8958 4.89144 30.851C4.80643 30.8293 4.74769 30.8108 4.71369 30.8015L4.68587 30.7938H4.68432C2.95635 30.2451 1.10628 31.1941 0.546778 32.9221C-0.0142714 34.6547 0.937816 36.514 2.67042 37.0751C2.77243 37.1075 3.40149 37.3069 4.40612 37.5032C5.41075 37.6979 6.78943 37.8911 8.39993 37.8927C9.40766 37.8927 10.505 37.817 11.658 37.6068C12.522 37.4491 13.4154 37.2173 14.3165 36.8803Z" fill="#E2F163"/>
<path d="M39.053 44.9185H35.7949C35.8506 44.7037 35.8861 44.4811 35.8985 44.2508C35.9016 44.1998 35.9093 44.0221 35.9093 43.7392C35.9093 43.0762 35.8676 41.8351 35.5986 40.2709C35.3962 39.0978 35.0654 37.7439 34.5105 36.3188C34.0948 35.2508 33.5507 34.1426 32.8336 33.0546C32.2957 32.24 31.6605 31.4363 30.9139 30.6805C29.7949 29.5461 28.4194 28.5182 26.7888 27.7161C26.7733 27.7083 26.7563 27.7006 26.7393 27.6929L32.0345 16.5708L32.2818 15.982C33.3374 13.4611 32.1489 10.5631 29.628 9.50747C29.2741 9.35909 28.9124 9.25708 28.5492 9.19526C28.2385 9.07934 27.9186 9.01288 27.5986 8.99279C27.5229 8.97733 27.4426 8.96188 27.3545 8.94488C26.6296 8.80886 25.5183 8.6543 24.1319 8.6543C22.2849 8.65276 19.9325 8.93096 17.322 9.87223C14.7115 10.8104 11.8584 12.4163 9.02219 14.9789C7.6698 16.1983 7.56315 18.2849 8.78263 19.6373C10.0021 20.9897 12.0886 21.0963 13.441 19.8768C15.6744 17.8645 17.7471 16.7331 19.5585 16.0778C20.2617 15.8243 20.9263 15.645 21.5477 15.5183L16.9573 25.2045C16.9542 25.2153 16.9511 25.2292 16.9464 25.2493C16.9341 25.3065 16.914 25.4023 16.8939 25.5291C16.8537 25.7841 16.8104 26.1628 16.8104 26.6156C16.8104 27.1257 16.8645 27.7254 17.0299 28.3467C17.1953 28.9696 17.4658 29.611 17.9078 30.24C18.203 30.6589 18.5755 31.0746 19.0562 31.475C19.5832 31.9139 20.2463 32.3358 21.084 32.7145C21.897 32.8753 22.6079 33.0932 23.237 33.3482C23.965 33.645 24.5832 33.9943 25.1242 34.3822C26.0685 35.0607 26.7872 35.8598 27.3622 36.7408C27.7919 37.4008 28.135 38.1071 28.4039 38.815C28.8073 39.8768 29.0422 40.9463 29.1674 41.8335C29.2942 42.7191 29.3127 43.4193 29.3127 43.7408C29.3127 43.8211 29.3112 43.8768 29.3112 43.9077L29.3096 43.9324H29.3112C29.2957 44.274 29.3328 44.6048 29.4147 44.9201H12.6914C12.0083 44.9201 11.4549 45.4734 11.4549 46.1565C11.4549 46.8397 12.0083 47.393 12.6914 47.393H39.0546C39.7377 47.393 40.291 46.8397 40.291 46.1565C40.2895 45.4718 39.7362 44.9185 39.053 44.9185Z" fill="#E2F163"/>
<path d="M6.69334 44.916H3.71499C3.03184 44.916 2.47852 45.4693 2.47852 46.1525C2.47852 46.8356 3.03184 47.389 3.71499 47.389H6.69334C7.37649 47.389 7.92981 46.8356 7.92981 46.1525C7.92981 45.4693 7.37649 44.916 6.69334 44.916Z" fill="#E2F163"/>
<path d="M32.6021 8.82132C34.7753 8.82132 36.5371 7.05953 36.5371 4.88625C36.5371 2.71296 34.7753 0.951172 32.6021 0.951172C30.4288 0.951172 28.667 2.71296 28.667 4.88625C28.667 7.05953 30.4288 8.82132 32.6021 8.82132Z" fill="#E2F163"/>
</svg>
