<svg width="15" height="19" viewBox="0 0 15 19" fill="none" xmlns="http://www.w3.org/2000/svg">
<path d="M8.27257 16.5118L13.5614 13.5287M5.37473 5.18841L11.1061 14.9135M7.75966 3.45672C7.8466 3.60654 7.79012 3.80093 7.63351 3.89089L2.88379 6.61929C2.72718 6.70925 2.52974 6.66072 2.4428 6.5109C0.482662 3.13299 1.75803 1.84033 2.89735 1.18586C4.03668 0.531397 5.79625 0.0731724 7.75966 3.45672ZM7.91707 3.728L13.4804 13.3154C13.5482 13.4321 13.5811 13.5658 13.5738 13.7005C13.4821 15.3996 13.2477 16.8884 13.0922 17.7341C13.0184 18.1355 12.612 18.3712 12.2247 18.2366C11.407 17.9524 9.98557 17.4157 8.45235 16.6425C8.33139 16.5815 8.23129 16.4862 8.16348 16.3693L2.60022 6.78218L7.91707 3.728Z" stroke="#252525" stroke-linecap="round"/>
</svg>
